<svg width="1920" height="236" viewBox="0 0 1920 236" fill="none" xmlns="http://www.w3.org/2000/svg">
<path d="M594.24 130.56H596.48C608.96 130.56 618.88 120.64 618.88 108.16V88.6399C618.88 77.1199 617.6 71.68 613.12 65.6C606.72 57.6 595.52 54.08 584.64 54.08H488H448.96V82.88V116.16V130.56V144.96V180.16V211.84H488H572.8C586.88 211.84 603.52 209.92 612.16 200.64C620.16 192 620.48 185.28 620.48 164.16V157.12C620.8 142.72 608.96 130.56 594.24 130.56ZM488.32 82.88H570.24C574.4 82.88 583.04 84.48 583.04 91.2V108.48C583.04 113.92 575.04 116.16 571.84 116.16H488.32V82.88ZM583.68 171.84C583.68 176.64 579.84 180.48 575.04 180.48H488.32V145.28H574.4C579.52 145.28 583.68 149.44 583.68 154.56V171.84Z" fill="white"/>
<path d="M812.16 212.16H856.96L766.4 54.4H729.6L640.64 212.16H680.64L699.2 177.92H793.92L812.16 212.16ZM715.84 147.2L746.88 90.2399L777.28 147.2H715.84Z" fill="white"/>
<path d="M907.52 54.4H901.76H892.8H880.64V212.16H916.48V132.8L915.52 108.48L1038.08 212.16H1044.48H1060.16H1065.6V54.4H1029.76V133.76L1030.72 158.08L907.52 54.4Z" fill="white"/>
<path d="M1267.52 212.16H1145.6C1134.72 212.16 1122.88 209.6 1116.48 201.92C1111.04 195.84 1110.08 185.28 1110.08 176.64V89.9199C1110.08 79.9999 1111.36 69.4399 1117.76 63.0399C1124.16 56.6399 1135.68 54.4 1145.6 54.4H1267.52C1278.4 54.4 1290.24 56.6399 1296.64 64.3199C1301.76 70.3999 1303.04 81.2799 1303.04 89.9199V176.64C1303.04 185.6 1302.08 195.84 1296.64 201.92C1290.24 209.6 1278.4 212.16 1267.52 212.16ZM1149.12 86.0799V180.48H1264V86.0799H1149.12Z" fill="white"/>
<path d="M1482.88 212.16H1538.24L1467.52 153.92H1489.28C1505.92 153.92 1519.68 140.48 1519.68 123.52V84.48C1519.68 67.84 1506.24 54.08 1489.28 54.08H1387.84H1348.8V84.1599V123.2V153.28V212.16H1387.84V153.92H1418.88L1482.88 212.16ZM1387.84 84.48H1473.6C1477.76 84.48 1480.96 87.6799 1480.96 91.8399V116.48C1480.96 120.64 1477.76 123.84 1473.6 123.84H1387.84V84.48Z" fill="white"/>
<path d="M1548.48 54.4V85.7599H1619.2V212.16H1658.24V85.7599H1728.64V54.4H1658.24H1619.2H1548.48Z" fill="white"/>
<path d="M1873.28 114.56H1799.36V84.8H1918.4V54.4H1799.36H1760.32V84.8V114.56V144.96V180.16V212.16H1799.36H1920V180.16H1799.36V144.96H1873.28V114.56Z" fill="white"/>
<path d="M204.8 0C113.6 0 39.68 24 39.68 53.76C39.68 78.72 91.2 99.52 161.28 105.6L190.08 16.96L195.2 107.2C198.4 107.2 201.6 107.2 205.12 107.2C296.32 107.2 370.24 83.1999 370.24 53.4399C369.92 24.3199 296 0 204.8 0Z" fill="white"/>
<path d="M160.32 108.8C71.36 109.76 0 137.92 0 172.8C0 202.24 50.56 226.88 119.68 234.56L160.32 108.8Z" fill="white"/>
<path d="M194.88 109.76L201.92 235.2C275.2 228.8 329.6 203.2 329.6 172.8C329.92 141.44 271.68 115.2 194.88 109.76Z" fill="white"/>
</svg>
